<svg data-v-423bf9ae="" xmlns="http://www.w3.org/2000/svg" viewBox="0 0 442 112" class="iconLeft"><!----><!----><!----><g data-v-423bf9ae="" id="c3ec3c61-216b-4aff-bf38-f929b361f08f" fill="white" transform="matrix(4.731861440741736,0,0,4.731861440741736,125.72329982395536,17.606070961058798)"><path d="M7.83 3.22L7.83 2.21L1.13 2.21L1.13 11.48L2.18 11.48L2.18 7.46L7.21 7.46L7.21 6.44L2.18 6.44L2.18 3.22ZM11.90 4.37C9.76 4.37 8.43 5.98 8.43 7.98C8.43 9.98 9.76 11.59 11.90 11.59C14.04 11.59 15.37 9.98 15.37 7.98C15.37 5.98 14.04 4.37 11.90 4.37ZM11.90 10.64C10.35 10.64 9.48 9.42 9.48 7.98C9.48 6.54 10.35 5.32 11.90 5.32C13.45 5.32 14.32 6.54 14.32 7.98C14.32 9.42 13.45 10.64 11.90 10.64ZM19.80 4.37C17.65 4.37 16.32 5.98 16.32 7.98C16.32 9.98 17.65 11.59 19.80 11.59C21.94 11.59 23.27 9.98 23.27 7.98C23.27 5.98 21.94 4.37 19.80 4.37ZM19.80 10.64C18.24 10.64 17.37 9.42 17.37 7.98C17.37 6.54 18.24 5.32 19.80 5.32C21.35 5.32 22.22 6.54 22.22 7.98C22.22 9.42 21.35 10.64 19.80 10.64ZM27.61 4.37C25.56 4.37 24.22 5.98 24.22 7.98C24.22 9.98 25.56 11.59 27.61 11.59C28.77 11.59 29.60 11.12 30.11 10.36L30.11 11.48L31.16 11.48L31.16 1.68L30.11 1.68L30.11 5.61C29.60 4.86 28.77 4.37 27.61 4.37ZM27.75 10.64C26.19 10.64 25.27 9.42 25.27 7.98C25.27 6.54 26.19 5.32 27.75 5.32C29.30 5.32 30.17 6.54 30.17 7.98C30.17 9.42 29.30 10.64 27.75 10.64ZM38.44 4.48L38.44 5.60C37.93 4.84 37.10 4.37 35.94 4.37C33.89 4.37 32.55 5.92 32.55 7.92C32.55 9.93 33.89 11.48 35.94 11.48C37.10 11.48 37.93 10.99 38.44 10.23L38.44 11.20C38.44 12.64 37.74 13.41 36.13 13.41C35.07 13.41 34.37 13.01 34.09 12.32L32.93 12.32C33.32 13.54 34.43 14.36 36.19 14.36C38.29 14.36 39.49 13.27 39.49 11.27L39.49 4.48ZM36.08 10.53C34.52 10.53 33.60 9.37 33.60 7.92C33.60 6.48 34.52 5.32 36.08 5.32C37.60 5.32 38.50 6.48 38.50 7.92C38.50 9.37 37.60 10.53 36.08 10.53ZM44.27 4.37C42.22 4.37 40.88 5.98 40.88 7.98C40.88 9.98 42.22 11.59 44.27 11.59C45.43 11.59 46.26 11.12 46.77 10.36L46.77 11.48L47.82 11.48L47.82 4.48L46.77 4.48L46.77 5.61C46.26 4.86 45.43 4.37 44.27 4.37ZM44.41 10.64C42.85 10.64 41.93 9.42 41.93 7.98C41.93 6.54 42.85 5.32 44.41 5.32C45.96 5.32 46.83 6.54 46.83 7.98C46.83 9.42 45.96 10.64 44.41 10.64ZM52.08 4.37C50.27 4.37 49.34 5.11 49.34 6.37C49.34 8.93 54.00 7.84 54.00 9.59C54.00 10.54 52.78 10.70 52.21 10.70C50.85 10.70 50.32 10.00 50.25 9.28L49.15 9.28C49.22 10.51 50.25 11.59 52.19 11.59C53.93 11.59 55.05 10.85 55.05 9.49C55.05 6.86 50.39 7.95 50.39 6.27C50.39 5.59 50.96 5.26 52.05 5.26C53.23 5.26 53.68 5.75 53.76 6.36L54.82 6.36C54.70 5.33 53.93 4.37 52.08 4.37ZM62.12 7.29C62.12 6.05 62.97 5.32 64.01 5.32C64.99 5.32 65.74 6.10 65.74 7.28L65.74 11.48L66.79 11.48L66.79 7.25C66.79 5.49 65.55 4.37 64.20 4.37C62.82 4.37 62.08 5.31 61.80 5.78C61.35 4.89 60.49 4.37 59.57 4.37C58.44 4.37 57.76 4.98 57.44 5.54L57.44 4.48L56.39 4.48L56.39 11.48L57.44 11.48L57.44 7.29C57.44 6.05 58.30 5.32 59.33 5.32C60.31 5.32 61.07 6.10 61.07 7.28L61.07 11.48L62.12 11.48Z"></path></g><!----><g data-v-423bf9ae="" id="67b49c20-6a35-4880-90a5-11655c1069c0" transform="matrix(1.111111534966363,0,0,1.111111534966363,0.4628219075414819,0.4444066140022116)" stroke="none" fill="white"><path d="M73.428 5.851A49.933 49.933 0 0 0 5.846 26.566C-7.075 50.918 2.212 81.241 26.562 94.161 33.768 97.979 41.848 100 49.953 100c18.573 0 35.509-10.174 44.204-26.556 12.92-24.349 3.621-54.674-20.729-67.593zM28.003 91.439C5.156 79.307-3.564 50.855 8.556 28.008A46.87 46.87 0 0 1 50.039 3.079c7.599 0 15.185 1.896 21.948 5.492 22.849 12.119 31.569 40.572 19.448 63.42-8.166 15.384-24.055 24.93-41.482 24.93-7.6 0-15.187-1.897-21.95-5.482z"></path><path d="M86.386 29.178a1.522 1.522 0 0 0-2.095-.566 1.541 1.541 0 0 0-.58 2.095c.112.209.236.406.347.615 9.582 17.465 4.2 39.672-12.44 50.808-8.438 5.653-18.524 7.746-28.488 5.924-.234-.038-.456-.073-.69-.124a1.559 1.559 0 0 0-1.811 1.207c-.172.838.37 1.65 1.207 1.824 2.771.553 5.542.825 8.302.825 8.204 0 16.22-2.428 23.204-7.095 18.166-12.17 23.894-36.556 13.044-55.513zM25.799 80.183a37.287 37.287 0 0 1-4.89-4.682 37.334 37.334 0 0 1-3.079-4.003l-1.281.863 1.207-.986C5.969 53.639 10.772 29.561 28.459 17.71a38.841 38.841 0 0 1 18.303-6.429c.197-.025.395-.037.592-.05a1.523 1.523 0 0 0 1.428-1.638 1.542 1.542 0 0 0-1.638-1.429 41.774 41.774 0 0 0-20.397 6.983C7.656 27.946 2.458 53.935 15.133 72.989a3.8 3.8 0 0 1 .135.222 42.082 42.082 0 0 0 3.326 4.323 41.02 41.02 0 0 0 5.789 5.455c.271.223.604.32.937.32.468 0 .911-.209 1.219-.591a1.556 1.556 0 0 0-.271-2.167 16.364 16.364 0 0 1-.469-.368zM64.449 13.917a38.574 38.574 0 0 1 11.774 7.403c.295.271.678.405 1.047.405.42 0 .826-.171 1.134-.504a1.53 1.53 0 0 0-.099-2.169 41.492 41.492 0 0 0-12.711-7.993 1.54 1.54 0 0 0-2.009.851c-.307.8.075 1.687.864 2.007z"></path><path d="M42.932 69.048c-.32-1.959-1.798-3.523-3.633-4.028-.024-.381-.049-.763-.062-1.145a36.174 36.174 0 0 1 0-1.614c.025-.565.062-1.134.099-1.699.111-1.184.284-2.316.505-3.375.221-.998.517-2.032.862-2.98l.924-2.144c.123-.246.234-.431.308-.566 0-.013.123-.21.136-.223 3.251-5.319 2.044-12.131-2.599-16.023-.468-.395-.96-.751-1.502-1.084a12.415 12.415 0 0 0-6.504-1.848c-4.36 0-8.326 2.229-10.617 5.938-3.215 5.26-2.069 12.169 2.636 16.062a.953.953 0 0 0 .123.099l.099.086c.111.111.283.258.493.467l1.552 1.713c.616.775 1.231 1.65 1.773 2.55a27.73 27.73 0 0 1 1.564 3.017c.221.529.443 1.06.641 1.577.196.53.369 1.034.517 1.54.012.037.024.061.037.099l-.504 1.649a4.997 4.997 0 0 0-1.355 4.337c0 .023.012.048.012.073.395 2.155 2.18 3.843 4.36 4.102.197.012.395.025.591.025.271 0 .542-.014.813-.062a5.021 5.021 0 0 0 2.205-.937 5.037 5.037 0 0 0 2.39.174 5.194 5.194 0 0 0 1.342-.42 5.074 5.074 0 0 0 2.794-5.36zm-4.127 2.574a1.84 1.84 0 0 1-.517.172c-.48.074-.96-.024-1.355-.283a1.556 1.556 0 0 0-2.032.334c-.295.38-.727.628-1.194.701-.185.037-.37.037-.554.012a1.943 1.943 0 0 1-.493-3.732l.123-.048a1.53 1.53 0 0 0 1.046-1.763 23.22 23.22 0 0 0-.64-2.548 28.457 28.457 0 0 0-.579-1.726 68.196 68.196 0 0 0-.702-1.725c-.049-.123-.111-.233-.172-.344v-.012a27.606 27.606 0 0 0-1.577-3.019 27.64 27.64 0 0 0-2.02-2.895l-1.564-1.761-.234-.233a14.237 14.237 0 0 0-.604-.556l-.259-.221c-3.56-2.957-4.421-8.153-1.995-12.107a9.294 9.294 0 0 1 7.981-4.472c1.725 0 3.412.48 4.89 1.392a8.983 8.983 0 0 1 2.106 1.774c2.661 3.006 3.189 7.501 1.022 11.036-.012.023-.086.135-.099.16l-.099.159c-.099.174-.246.431-.394.727-.062.111-.111.222-.173.346l-.579 1.317c-.012.013-.049.123-.062.148l-.271.689a28.686 28.686 0 0 0-.973 3.388 31.267 31.267 0 0 0-.566 3.768 49.796 49.796 0 0 0-.111 1.86c-.012.615-.012 1.22 0 1.799.038.887.099 1.773.222 2.636.11.775.776 1.342 1.564 1.33l.062-1.54.074 1.54c.899.05 1.663.727 1.811 1.625a1.925 1.925 0 0 1-1.083 2.072zM57.133 59.588a7.896 7.896 0 0 0 3.792 3.806 8.054 8.054 0 0 0 4.682.641 7.942 7.942 0 0 0 2.783.506c.777 0 1.552-.124 2.304-.346a7.909 7.909 0 0 0 4.076-2.918 7.949 7.949 0 0 0 5.124-3.979 7.88 7.88 0 0 0 .358-6.64 7.912 7.912 0 0 0-.087-4.312 7.953 7.953 0 0 0-3.658-4.556 7.719 7.719 0 0 0-1.712-.727 8.57 8.57 0 0 0-1.774-1.282c-1.527-.813-3.312-1.096-5.025-.813a7.862 7.862 0 0 0-5.073-.146 7.464 7.464 0 0 0-1.983.924 7.878 7.878 0 0 0-6.27 4.163 7.752 7.752 0 0 0-.911 4.226 7.954 7.954 0 0 0-.911 6.589 7.952 7.952 0 0 0 4.285 4.864zm.246-14.238a4.868 4.868 0 0 1 4.126-2.562c.32 0 .616-.111.875-.295a4.41 4.41 0 0 1 1.44-.728 4.829 4.829 0 0 1 3.4.21c.308.147.652.171.984.098a4.792 4.792 0 0 1 4.657 1.429c.209.223.491.382.786.444.358.087.715.209 1.036.369a4.801 4.801 0 0 1 2.474 5.936c-.136.395-.11.825.074 1.196a4.839 4.839 0 0 1-.061 4.409c-.715 1.366-2.021 2.278-3.561 2.512a1.52 1.52 0 0 0-1.097.728 4.875 4.875 0 0 1-2.721 2.155 4.89 4.89 0 0 1-3.399-.223 1.408 1.408 0 0 0-.629-.135 1.77 1.77 0 0 0-.357.036 4.738 4.738 0 0 1-2.623-.11 5.715 5.715 0 0 1-.764-.32 4.85 4.85 0 0 1-2.267-2.623 1.574 1.574 0 0 0-.936-.924 4.816 4.816 0 0 1-3.03-3.141 4.848 4.848 0 0 1 .788-4.335c.247-.333.357-.752.296-1.158a4.88 4.88 0 0 1 .509-2.968z"></path></g><!----></svg>