<svg data-v-fde0c5aa="" xmlns="http://www.w3.org/2000/svg" viewBox="0 0 300 300" class="font"><!----><defs data-v-fde0c5aa=""><!----></defs><rect data-v-fde0c5aa="" fill="#8F532C" x="0" y="0" width="300px" height="300px" class="logo-background-square"></rect><defs data-v-fde0c5aa=""><!----></defs><g data-v-fde0c5aa="" id="645f5d88-4c5e-44e8-b10a-85fd3ebb13fe" fill="#001C0F" transform="matrix(3.3505937820554235,0,0,3.3505937820554235,36.21382904225425,123.12823873066682)"><path d="M7.83 3.22L7.83 2.21L1.13 2.21L1.13 11.48L2.18 11.48L2.18 7.46L7.21 7.46L7.21 6.44L2.18 6.44L2.18 3.22ZM11.90 4.37C9.76 4.37 8.43 5.98 8.43 7.98C8.43 9.98 9.76 11.59 11.90 11.59C14.04 11.59 15.37 9.98 15.37 7.98C15.37 5.98 14.04 4.37 11.90 4.37ZM11.90 10.64C10.35 10.64 9.48 9.42 9.48 7.98C9.48 6.54 10.35 5.32 11.90 5.32C13.45 5.32 14.32 6.54 14.32 7.98C14.32 9.42 13.45 10.64 11.90 10.64ZM19.80 4.37C17.65 4.37 16.32 5.98 16.32 7.98C16.32 9.98 17.65 11.59 19.80 11.59C21.94 11.59 23.27 9.98 23.27 7.98C23.27 5.98 21.94 4.37 19.80 4.37ZM19.80 10.64C18.24 10.64 17.37 9.42 17.37 7.98C17.37 6.54 18.24 5.32 19.80 5.32C21.35 5.32 22.22 6.54 22.22 7.98C22.22 9.42 21.35 10.64 19.80 10.64ZM27.61 4.37C25.56 4.37 24.22 5.98 24.22 7.98C24.22 9.98 25.56 11.59 27.61 11.59C28.77 11.59 29.60 11.12 30.11 10.36L30.11 11.48L31.16 11.48L31.16 1.68L30.11 1.68L30.11 5.61C29.60 4.86 28.77 4.37 27.61 4.37ZM27.75 10.64C26.19 10.64 25.27 9.42 25.27 7.98C25.27 6.54 26.19 5.32 27.75 5.32C29.30 5.32 30.17 6.54 30.17 7.98C30.17 9.42 29.30 10.64 27.75 10.64ZM38.44 4.48L38.44 5.60C37.93 4.84 37.10 4.37 35.94 4.37C33.89 4.37 32.55 5.92 32.55 7.92C32.55 9.93 33.89 11.48 35.94 11.48C37.10 11.48 37.93 10.99 38.44 10.23L38.44 11.20C38.44 12.64 37.74 13.41 36.13 13.41C35.07 13.41 34.37 13.01 34.09 12.32L32.93 12.32C33.32 13.54 34.43 14.36 36.19 14.36C38.29 14.36 39.49 13.27 39.49 11.27L39.49 4.48ZM36.08 10.53C34.52 10.53 33.60 9.37 33.60 7.92C33.60 6.48 34.52 5.32 36.08 5.32C37.60 5.32 38.50 6.48 38.50 7.92C38.50 9.37 37.60 10.53 36.08 10.53ZM44.27 4.37C42.22 4.37 40.88 5.98 40.88 7.98C40.88 9.98 42.22 11.59 44.27 11.59C45.43 11.59 46.26 11.12 46.77 10.36L46.77 11.48L47.82 11.48L47.82 4.48L46.77 4.48L46.77 5.61C46.26 4.86 45.43 4.37 44.27 4.37ZM44.41 10.64C42.85 10.64 41.93 9.42 41.93 7.98C41.93 6.54 42.85 5.32 44.41 5.32C45.96 5.32 46.83 6.54 46.83 7.98C46.83 9.42 45.96 10.64 44.41 10.64ZM52.08 4.37C50.27 4.37 49.34 5.11 49.34 6.37C49.34 8.93 54.00 7.84 54.00 9.59C54.00 10.54 52.78 10.70 52.21 10.70C50.85 10.70 50.32 10.00 50.25 9.28L49.15 9.28C49.22 10.51 50.25 11.59 52.19 11.59C53.93 11.59 55.05 10.85 55.05 9.49C55.05 6.86 50.39 7.95 50.39 6.27C50.39 5.59 50.96 5.26 52.05 5.26C53.23 5.26 53.68 5.75 53.76 6.36L54.82 6.36C54.70 5.33 53.93 4.37 52.08 4.37ZM62.12 7.29C62.12 6.05 62.97 5.32 64.01 5.32C64.99 5.32 65.74 6.10 65.74 7.28L65.74 11.48L66.79 11.48L66.79 7.25C66.79 5.49 65.55 4.37 64.20 4.37C62.82 4.37 62.08 5.31 61.80 5.78C61.35 4.89 60.49 4.37 59.57 4.37C58.44 4.37 57.76 4.98 57.44 5.54L57.44 4.48L56.39 4.48L56.39 11.48L57.44 11.48L57.44 7.29C57.44 6.05 58.30 5.32 59.33 5.32C60.31 5.32 61.07 6.10 61.07 7.28L61.07 11.48L62.12 11.48Z"></path></g><!----><!----></svg>